<svg width="75" height="75" viewBox="0 0 75 75" fill="none" xmlns="http://www.w3.org/2000/svg">
<circle cx="30.5358" cy="19.8214" r="8.57143" fill="#000069"/>
<circle cx="62.6789" cy="42.8571" r="8.57143" fill="#23139C"/>
<circle cx="32.1427" cy="65.8928" r="8.57143" fill="#4626CF"/>
<circle cx="44.4644" cy="3.75" r="3.75" fill="#000069"/>
<circle cx="9.10742" cy="35.8928" r="3.75" fill="#351DB6"/>
<circle cx="71.25" cy="19.8215" r="3.75" fill="#23139C"/>
<circle cx="48.75" cy="56.25" r="3.75" fill="#4626CF"/>
<path d="M40.7143 31.0715C40.7143 31.9591 39.9947 32.6786 39.1071 32.6786C38.2195 32.6786 37.5 31.9591 37.5 31.0715C37.5 30.1839 38.2195 29.4644 39.1071 29.4644C39.9947 29.4644 40.7143 30.1839 40.7143 31.0715Z" fill="#000069"/>
<circle cx="35.8928" cy="43.9286" r="1.60714" fill="#4626CF"/>
<circle cx="11.7859" cy="8.5715" r="1.60714" fill="#000069"/>
<circle cx="43.3928" cy="15.5357" r="1.60714" fill="#000069"/>
<circle cx="10.7146" cy="60" r="1.60714" fill="#351DB6"/>
<circle cx="45.0002" cy="47.1429" r="1.60714" fill="#4626CF"/>
<circle cx="16.0715" cy="51.4287" r="1.60714" fill="#351DB6"/>
<circle cx="49.4388" cy="26.4031" r="0.688776" fill="#23139C"/>
<circle cx="28.5462" cy="34.9744" r="0.688776" fill="#211E9A"/>
<circle cx="28.5462" cy="51.5816" r="0.688776" fill="#4626CF"/>
<circle cx="0.688776" cy="22.6531" r="0.688776" fill="#1F1CAA"/>
<circle cx="58.0101" cy="64.4388" r="0.688776" fill="#4626CF"/>
<circle cx="74.0818" cy="47.8316" r="0.688776" fill="#23139C"/>
</svg>
